<svg width="15" height="16" viewBox="0 0 15 16" fill="none" xmlns="http://www.w3.org/2000/svg">
<path fill-rule="evenodd" clip-rule="evenodd" d="M0.891343 1.27909L3.34094 0.433227C3.67668 0.317227 4.00974 0.34576 4.32094 0.51696C4.63214 0.688161 4.83454 0.95456 4.91614 1.30016L6.73081 8.98309C6.87321 9.58549 6.54494 10.1916 5.96254 10.4018L4.96414 10.762C4.36814 10.977 3.71108 10.6999 3.44921 10.1228L0.183343 2.92549C0.0372096 2.60336 0.0340091 2.27083 0.173743 1.94576C0.31321 1.62096 0.557209 1.39456 0.891343 1.27909ZM6.79191 15.1507C7.76261 14.9353 8.37493 13.9738 8.15957 13.0031C7.94422 12.0325 6.98273 11.4201 6.01203 11.6355C5.04134 11.8508 4.42902 12.8123 4.64437 13.783C4.85973 14.7537 5.82121 15.366 6.79191 15.1507ZM9.6141 10.4654C9.9325 10.3571 10.2344 10.2462 10.2677 10.2291C11.0973 9.76911 11.4541 9.17418 11.4157 8.21552C11.3776 7.25685 10.6896 6.27978 9.55971 6.14165C9.25971 6.10512 8.84851 6.08885 8.37891 6.18192C8.07491 6.24218 7.78291 6.03258 7.71731 5.72992L7.24557 3.55258C7.20637 3.37125 7.2421 3.20032 7.3509 3.05018C7.4597 2.90005 7.75357 2.82992 7.9373 2.80512C8.77091 2.69258 9.4909 2.66858 10.3605 2.85338C12.7826 3.36805 14.6965 5.45365 14.7933 8.17338C14.8874 10.8179 13.2285 12.8654 10.7682 13.6419C10.4714 13.7355 10.205 13.7619 9.92451 13.6267C9.64397 13.4918 9.45144 13.2742 9.35117 12.9795L8.96451 11.8432C8.77411 11.284 9.0549 10.656 9.6141 10.4654Z" fill="#E2004D"/>
</svg>
